<mxfile host="65bd71144e">
    <diagram id="pdzElIPSyHo9-O_rcgjy" name="PÃ¡gina-1">
        <mxGraphModel dx="1189" dy="394" grid="1" gridSize="10" guides="1" tooltips="1" connect="1" arrows="1" fold="1" page="1" pageScale="1" pageWidth="827" pageHeight="1169" math="0" shadow="0">
            <root>
                <mxCell id="0"/>
                <mxCell id="1" parent="0"/>
                <mxCell id="2" value="" style="rounded=0;whiteSpace=wrap;html=1;" parent="1" vertex="1">
                    <mxGeometry x="230" y="390" width="891" height="420" as="geometry"/>
                </mxCell>
                <mxCell id="3" value="" style="rounded=0;whiteSpace=wrap;html=1;" parent="1" vertex="1">
                    <mxGeometry x="231" y="390" width="890" height="65" as="geometry"/>
                </mxCell>
                <mxCell id="4" value="" style="rounded=0;whiteSpace=wrap;html=1;align=left;" parent="1" vertex="1">
                    <mxGeometry x="240" y="463" width="170" height="337" as="geometry"/>
                </mxCell>
                <mxCell id="6" value="&lt;div style=&quot;&quot;&gt;&lt;font style=&quot;background-color: initial; font-size: 15px;&quot;&gt;&amp;nbsp;&amp;nbsp;&lt;/font&gt;&lt;font style=&quot;background-color: initial; font-size: 15px;&quot;&gt;Nombre: &lt;/font&gt;&lt;font style=&quot;background-color: initial; font-size: 10px;&quot;&gt;192.168.0.1&lt;/font&gt;&lt;/div&gt;" style="rounded=0;whiteSpace=wrap;html=1;fontSize=12;align=left;strokeColor=none;strokeWidth=0;opacity=0;" parent="1" vertex="1">
                    <mxGeometry x="240" y="463" width="160" height="40" as="geometry"/>
                </mxCell>
                <mxCell id="5" value="" style="ellipse;whiteSpace=wrap;html=1;aspect=fixed;fontSize=12;" parent="1" vertex="1">
                    <mxGeometry x="380" y="473" width="20" height="20" as="geometry"/>
                </mxCell>
                <mxCell id="9" value="" style="rounded=0;whiteSpace=wrap;html=1;strokeWidth=0;fontSize=10;strokeColor=none;glass=0;opacity=0;" parent="1" vertex="1">
                    <mxGeometry x="241" y="501" width="170" height="99" as="geometry"/>
                </mxCell>
                <mxCell id="10" value="" style="rounded=0;whiteSpace=wrap;html=1;glass=0;strokeColor=#000000;strokeWidth=1;fontSize=10;" parent="1" vertex="1">
                    <mxGeometry x="250" y="523" width="150" height="267" as="geometry"/>
                </mxCell>
                <mxCell id="11" value="Monitor Serial" style="rounded=0;whiteSpace=wrap;html=1;glass=0;strokeColor=#000000;strokeWidth=0;fontSize=10;opacity=0;" parent="1" vertex="1">
                    <mxGeometry x="265" y="503" width="120" height="20" as="geometry"/>
                </mxCell>
                <mxCell id="12" value="" style="rounded=0;whiteSpace=wrap;html=1;glass=0;strokeColor=#000000;strokeWidth=1;fontSize=10;" parent="1" vertex="1">
                    <mxGeometry x="251" y="760" width="148" height="30" as="geometry"/>
                </mxCell>
                <mxCell id="13" value="CAMARA SUPERIOR" style="rounded=0;whiteSpace=wrap;html=1;glass=0;strokeColor=#FFE2D4;strokeWidth=1;fontSize=10;" parent="1" vertex="1">
                    <mxGeometry x="414" y="463" width="326" height="165" as="geometry"/>
                </mxCell>
                <mxCell id="14" value="CAMARA INFERIOR" style="rounded=0;whiteSpace=wrap;html=1;glass=0;strokeColor=#FFE2D4;strokeWidth=1;fontSize=10;" parent="1" vertex="1">
                    <mxGeometry x="750" y="463" width="340" height="165" as="geometry"/>
                </mxCell>
                <mxCell id="15" value="" style="whiteSpace=wrap;html=1;aspect=fixed;" vertex="1" parent="1">
                    <mxGeometry x="430" y="640" width="150" height="150" as="geometry"/>
                </mxCell>
                <mxCell id="16" value="" style="whiteSpace=wrap;html=1;aspect=fixed;" vertex="1" parent="1">
                    <mxGeometry x="586" y="640" width="150" height="150" as="geometry"/>
                </mxCell>
                <mxCell id="17" value="" style="whiteSpace=wrap;html=1;aspect=fixed;" vertex="1" parent="1">
                    <mxGeometry x="746" y="640" width="150" height="150" as="geometry"/>
                </mxCell>
                <mxCell id="18" value="" style="whiteSpace=wrap;html=1;aspect=fixed;" vertex="1" parent="1">
                    <mxGeometry x="906" y="640" width="150" height="150" as="geometry"/>
                </mxCell>
            </root>
        </mxGraphModel>
    </diagram>
</mxfile>